<svg xmlns="http://www.w3.org/2000/svg" viewBox="0 0 43 47"><g fill="#A4C639"><path d="M34.9 14H8.1v19c0 1.9 1.5 3.5 3.4 3.6V44c0 1.6 1.3 2.9 2.9 2.9 1.6 0 2.9-1.3 2.9-2.9v-7.4h8.2V44c0 1.6 1.3 2.9 2.9 2.9 1.6 0 2.9-1.3 2.9-2.9v-7.4c1.9-.1 3.4-1.7 3.4-3.6V14.3c.2-.1.2-.2.2-.3zM2.9 15.7c1.6 0 2.9 1.3 2.9 2.9V31c0 1.6-1.3 2.9-2.9 2.9C1.3 33.9 0 32.6 0 31V18.5c0-1.5 1.3-2.8 2.9-2.8zM40.1 15.7c1.6 0 2.9 1.3 2.9 2.9V31c0 1.6-1.3 2.9-2.9 2.9-1.6 0-2.9-1.3-2.9-2.9V18.5c-.1-1.5 1.2-2.8 2.9-2.8zM8.2 12h26.6c0-2.8-1.3-5.3-3.3-7.3L34 .5c.1-.1 0-.3-.1-.4-.1-.1-.3 0-.4.1l-2.4 4.1C29 2.4 24.7.9 21.5.9c-3.1 0-7.5 1.5-9.6 3.4L9.5.2C9.4 0 9.2 0 9.1 0c-.2.1-.2.3-.1.5l2.5 4.2c-2 1.9-3.3 4.5-3.3 7.3zm17.7-5.2c0-.8.7-1.5 1.5-1.5s1.5.6 1.5 1.5c0 .8-.7 1.5-1.5 1.5s-1.5-.7-1.5-1.5zm-11.4 0c0-.8.7-1.5 1.5-1.5s1.5.6 1.5 1.5c0 .8-.7 1.5-1.5 1.5s-1.5-.7-1.5-1.5z"></path></g></svg>
