<svg xmlns="http://www.w3.org/2000/svg" viewBox="0 0 147 40"><g class="logo-text"><path d="M72.2 18.5c0-.7.6-1.3 1.3-1.3h7.2c5.1 0 8.5 2.7 8.5 7.1v.1c0 4.8-4.1 7.3-8.9 7.3h-5.5v6.8c0 .7-.6 1.3-1.3 1.3-.7 0-1.3-.6-1.3-1.3v-20zm8.2 10.9c3.8 0 6.2-2 6.2-4.9v-.1c0-3.2-2.4-4.8-6.1-4.8h-5.7v9.8h5.6zM94.1 18.3c0-.7.6-1.3 1.3-1.3.7 0 1.3.6 1.3 1.3v20.1c0 .7-.6 1.3-1.3 1.3-.7 0-1.3-.6-1.3-1.3V18.3zM103.2 18.4c0-.7.6-1.2 1.3-1.2h.4c.6 0 .9.3 1.3.7l13.7 17.3V18.3c0-.7.5-1.2 1.3-1.2.7 0 1.2.6 1.2 1.2v20.2c0 .7-.5 1.2-1.2 1.2h-.1c-.6 0-.9-.3-1.3-.8l-14-17.7v17.3c0 .7-.5 1.2-1.3 1.2-.7 0-1.2-.6-1.2-1.2l-.1-20.1zM128.8 18.3c0-.7.6-1.3 1.3-1.3.7 0 1.3.6 1.3 1.3v12.2l12.9-13c.3-.3.6-.4 1-.4.7 0 1.2.6 1.2 1.2 0 .4-.2.6-.4.9l-8 7.8 8.6 10.5c.2.3.4.5.4.9 0 .7-.6 1.3-1.3 1.3-.5 0-.8-.3-1-.6l-8.4-10.4-4.9 4.8v4.8c0 .7-.6 1.3-1.3 1.3-.7 0-1.3-.6-1.3-1.3l-.1-20z"></path></g><path d="M60.8 27.8L55.6 6.6C55.2 4.3 52.9 0 46.9 0c-.8 0-1.5.7-1.5 1.5S46.1 3 46.9 3c4.9 0 5.6 3.7 5.7 4.1l4.8 19.5h-2.1c-.7-5.9-5.8-10.4-12-10.4s-11.2 4.6-12 10.4h-1.8c-.7-5.9-5.8-10.4-12-10.4s-11.2 4.6-12 10.4H3.4L8.2 7.1C8.3 6.7 9 3 13.9 3c.8 0 1.5-.7 1.5-1.5S14.7 0 13.9 0c-6 0-8.3 4.3-8.6 6.6L.1 27.8c-.3 1.1.5 1.8 1.4 1.8h4c.7 5.9 5.8 10.4 12 10.4s11.2-4.6 12-10.4h1.8c.7 5.9 5.8 10.4 12 10.4s11.2-4.6 12-10.4h4c.9 0 1.7-.7 1.5-1.8zm-34.4 1.8c-.7 4.2-4.4 7.4-8.9 7.4s-8.2-3.2-8.9-7.5c-.1-.5-.1-1-.1-1.5s.1-1 .1-1.5c.7-4.2 4.4-7.5 8.9-7.5s8.2 3.2 8.9 7.5c.1.5.1 1 .1 1.5.1.6 0 1.1-.1 1.6zm25.8 0c-.7 4.2-4.4 7.5-8.9 7.5s-8.2-3.2-8.9-7.5c-.1-.5-.1-1-.1-1.5s.1-1 .1-1.5c.7-4.2 4.4-7.5 8.9-7.5s8.2 3.2 8.9 7.5c.1.5.1 1 .1 1.5.1.5 0 1-.1 1.5z"></path></svg>
