<svg xmlns="http://www.w3.org/2000/svg" viewBox="0 0 154 195.1"><path d="M77.8.6L77 .5.5 8.5v140.4L77 194.5l76.5-45.6V8.5L77.8.6zm65.7 142.6L77 182.8l-66.5-39.6V85.7l66.2 39.5.1 7.2-45.4-27.1-.1 6.9 45.6 27.4.1 7.3-45.6-27.2-.1 6.9L77 154.2l46-27.6v-7h-.1V97l20.5-12.3v58.5zm-.1-65.9L125.2 88l-8.4 5-40-23.9-.1 6.9L111 96.4l-.3.2-.7.4-4.9 2.9-28.3-16.8-.1 6.9L99 103.3l-5.3 3.5-.1.1L76.8 97l-.1 6.9 11.1 6.5-11.3 6.8L10.7 78l66-39.7 66.7 39zm.1-7L76.6 30.8 10.5 70.2V17.6l66.5-7 66.5 7v52.7z"></path></svg>
