<svg xmlns="http://www.w3.org/2000/svg" viewBox="0 0 75 22"><g class="logo-text"><path class="st0" d="M0 1.4C0 .7.6.2 1.3.2h7.2C13.6.2 17 2.8 17 7v.1c0 4.7-4.1 7.1-8.9 7.1H2.6v6.6c0 .6-.6 1.2-1.3 1.2-.7 0-1.3-.6-1.3-1.2V1.4zM8.2 12c3.8 0 6.2-1.9 6.2-4.8v-.1c0-3.1-2.4-4.7-6.1-4.7H2.6V12h5.6zM21.9 1.2c0-.7.6-1.2 1.3-1.2.7 0 1.3.6 1.3 1.2v19.5c0 .7-.6 1.2-1.3 1.2-.7 0-1.3-.6-1.3-1.2V1.2zM31.1 1.3c0-.7.6-1.2 1.3-1.2h.4c.6 0 .9.3 1.3.7l13.8 16.8V1.2c0-.7.6-1.2 1.3-1.2.7 0 1.2.6 1.2 1.2v19.6c0 .7-.5 1.1-1.2 1.1H49c-.6 0-.9-.3-1.3-.7L33.6 4v16.8c0 .7-.6 1.2-1.3 1.2-.7 0-1.2-.6-1.2-1.2V1.3zM56.7 1.2c0-.6.6-1.2 1.3-1.2.7 0 1.3.6 1.3 1.2v11.9L72.2.4c.3-.2.6-.4 1-.4.7 0 1.2.6 1.2 1.2 0 .3-.2.6-.4.9l-8 7.6 8.6 10.2c.2.3.4.5.4.9 0 .7-.6 1.2-1.3 1.2-.5 0-.8-.2-1-.6l-8.5-10.1-4.9 4.7v4.7c0 .7-.6 1.2-1.3 1.2-.7 0-1.3-.6-1.3-1.2V1.2z"></path></g></svg>
