<svg xmlns="http://www.w3.org/2000/svg" viewBox="0 0 147 40"><path class="logo-text" d="M 72.2 18.5 c 0 -0.7 0.6 -1.3 1.3 -1.3 h 7.2 c 5.1 0 8.5 2.7 8.5 7.1 v 0.1 c 0 4.8 -4.1 7.3 -8.9 7.3 h -5.5 v 6.8 c 0 0.7 -0.6 1.3 -1.3 1.3 c -0.7 0 -1.3 -0.6 -1.3 -1.3 v -20 z m 8.2 10.9 c 3.8 0 6.2 -2 6.2 -4.9 v -0.1 c 0 -3.2 -2.4 -4.8 -6.1 -4.8 h -5.7 v 9.8 h 5.6 z M 94.1 18.3 c 0 -0.7 0.6 -1.3 1.3 -1.3 c 0.7 0 1.3 0.6 1.3 1.3 v 20.1 c 0 0.7 -0.6 1.3 -1.3 1.3 c -0.7 0 -1.3 -0.6 -1.3 -1.3 V 18.3 z M 103.2 18.4 c 0 -0.7 0.6 -1.2 1.3 -1.2 h 0.4 c 0.6 0 0.9 0.3 1.3 0.7 l 13.7 17.3 V 18.3 c 0 -0.7 0.5 -1.2 1.3 -1.2 c 0.7 0 1.2 0.6 1.2 1.2 v 20.2 c 0 0.7 -0.5 1.2 -1.2 1.2 h -0.1 c -0.6 0 -0.9 -0.3 -1.3 -0.8 l -14 -17.7 v 17.3 c 0 0.7 -0.5 1.2 -1.3 1.2 c -0.7 0 -1.2 -0.6 -1.2 -1.2 l -0.1 -20.1 z M 128.8 18.3 c 0 -0.7 0.6 -1.3 1.3 -1.3 c 0.7 0 1.3 0.6 1.3 1.3 v 12.2 l 12.9 -13 c 0.3 -0.3 0.6 -0.4 1 -0.4 c 0.7 0 1.2 0.6 1.2 1.2 c 0 0.4 -0.2 0.6 -0.4 0.9 l -8 7.8 l 8.6 10.5 c 0.2 0.3 0.4 0.5 0.4 0.9 c 0 0.7 -0.6 1.3 -1.3 1.3 c -0.5 0 -0.8 -0.3 -1 -0.6 l -8.4 -10.4 l -4.9 4.8 v 4.8 c 0 0.7 -0.6 1.3 -1.3 1.3 c -0.7 0 -1.3 -0.6 -1.3 -1.3 l -0.1 -20 z"/><path class="logo-glasses" d="M 60.8 27.8 L 55.6 6.6 C 55.2 4.3 52.9 0 46.9 0 c -0.8 0 -1.5 0.7 -1.5 1.5 S 46.1 3 46.9 3 c 4.9 0 5.6 3.7 5.7 4.1 l 4.8 19.5 h -2.1 c -0.7 -5.9 -5.8 -10.4 -12 -10.4 s -11.2 4.6 -12 10.4 h -1.8 c -0.7 -5.9 -5.8 -10.4 -12 -10.4 s -11.2 4.6 -12 10.4 H 3.4 L 8.2 7.1 C 8.3 6.7 9 3 13.9 3 c 0.8 0 1.5 -0.7 1.5 -1.5 S 14.7 0 13.9 0 c -6 0 -8.3 4.3 -8.6 6.6 L 0.1 27.8 c -0.3 1.1 0.5 1.8 1.4 1.8 h 4 c 0.7 5.9 5.8 10.4 12 10.4 s 11.2 -4.6 12 -10.4 h 1.8 c 0.7 5.9 5.8 10.4 12 10.4 s 11.2 -4.6 12 -10.4 h 4 c 0.9 0 1.7 -0.7 1.5 -1.8 z m -34.4 1.8 c -0.7 4.2 -4.4 7.4 -8.9 7.4 s -8.2 -3.2 -8.9 -7.5 c -0.1 -0.5 -0.1 -1 -0.1 -1.5 s 0.1 -1 0.1 -1.5 c 0.7 -4.2 4.4 -7.5 8.9 -7.5 s 8.2 3.2 8.9 7.5 c 0.1 0.5 0.1 1 0.1 1.5 c 0.1 0.6 0 1.1 -0.1 1.6 z m 25.8 0 c -0.7 4.2 -4.4 7.5 -8.9 7.5 s -8.2 -3.2 -8.9 -7.5 c -0.1 -0.5 -0.1 -1 -0.1 -1.5 s 0.1 -1 0.1 -1.5 c 0.7 -4.2 4.4 -7.5 8.9 -7.5 s 8.2 3.2 8.9 7.5 c 0.1 0.5 0.1 1 0.1 1.5 c 0.1 0.5 0 1 -0.1 1.5 z"/></svg>
