<svg xmlns="http://www.w3.org/2000/svg" viewBox="0 0 298 345"><path fill="#dedede" d="M264.6 102l5.4-5.4c7.7-7.7 9.1-18.9 3.1-24.9s-17.2-4.6-24.9 3.1l-5.4 5.4c-21-17-46.6-28.4-74.7-32v-9.6h7.7c10.9 0 19.8-8.7 19.8-19.4S186.6 0 175.7 0h-53.3c-10.9 0-19.8 8.7-19.8 19.4s8.9 19.4 19.8 19.4h7.7v9.6C56.7 57.6 0 120.2 0 196c0 82.3 66.7 149 149 149s149-66.7 149-149c0-35.6-12.5-68.3-33.4-94zM149 306.2c-60.8 0-110.2-49.3-110.2-110.1S88.1 86 149 86c60.8 0 110.2 49.3 110.2 110.1S209.8 306.2 149 306.2z"></path><path fill="#d22856" d="M149 69.5C79.1 69.5 22.5 126.2 22.5 196c0 69.9 56.6 126.5 126.5 126.5S275.5 265.9 275.5 196c0-69.8-56.6-126.5-126.5-126.5zm0 237.3c-60.8 0-110.2-49.3-110.2-110.2 0-60.8 49.3-110.2 110.2-110.2 60.8 0 110.2 49.3 110.2 110.2 0 60.8-49.4 110.2-110.2 110.2z"></path></svg>
